<svg xmlns="http://www.w3.org/2000/svg" viewBox="0 0 22.01 24"><defs><style>.cls-1{fill:#003da5;}.cls-2{fill:#27251f;}</style></defs><title>logo</title><g id="Layer_2" data-name="Layer 2"><g id="logo"><path class="cls-1" d="M18,15.82a3.78,3.78,0,0,1-2.51,3.87,5,5,0,0,1-.57-.3,8.18,8.18,0,0,0,0-.88V14.1h-2V12.45h5ZM15.45,11.7H12.19v3.67A4.41,4.41,0,0,0,13.8,19v-.51a3.92,3.92,0,0,1-.86-2.71v-1h1.24v4.19A4.73,4.73,0,0,1,11,23.74a4.7,4.7,0,0,1-3.15-4.46A4.36,4.36,0,0,0,9.8,15.37v-.51h2V14.1H7.11v4.41c0,.15,0,.3,0,.45a4.3,4.3,0,0,0,.74-.61V14.86H9.05v1a3.77,3.77,0,0,1-2.51,3.87A3.77,3.77,0,0,1,4,15.82V12.45h5v1.29H9.8v-2H3.29v3.67A4.51,4.51,0,0,0,6.54,20a6.58,6.58,0,0,0,.66-.29A5.37,5.37,0,0,0,11,24a5.36,5.36,0,0,0,3.82-4.32,5.63,5.63,0,0,0,.61.27,4.51,4.51,0,0,0,3.26-4.58V11.7Z"/><path class="cls-2" d="M4.77,9.71V9.56A1.2,1.2,0,0,0,5,9.43a.1.1,0,0,0,0-.07,1.56,1.56,0,0,0,0-.35c0-.26,0-.42,0-.47V7c0-.26,0-.52,0-.77a1.25,1.25,0,0,0,0-.33.21.21,0,0,0-.11-.07,1.73,1.73,0,0,0-.43,0V5.58l.91,0,.87,0v.19a1.78,1.78,0,0,0-.44,0,.13.13,0,0,0-.1.07.61.61,0,0,0,0,.28s0,.31,0,.82v2c0,.2,0,.37,0,.5h.48a5,5,0,0,0,1.23-.1c0-.06,0-.13.07-.2l.12-.48h.2c0,.29-.09.62-.13,1l-.2,0H7l-1.62,0c-.19,0-.39,0-.59,0"/><path class="cls-2" d="M9.36,6.15s0,.31,0,.82V8.31M10,9.52v.19l-.85,0-.93,0V9.52a1.67,1.67,0,0,0,.43,0,.23.23,0,0,0,.11-.07.86.86,0,0,0,0-.28s0-.32,0-.83V7c0-.26,0-.52,0-.77a1,1,0,0,0,0-.33.24.24,0,0,0-.11-.08,2.93,2.93,0,0,0-.43,0V5.58l.89,0,.89,0v.19a3.23,3.23,0,0,0-.44,0,.16.16,0,0,0-.1.08.8.8,0,0,0-.05.28s0,.31,0,.82V8.31c0,.27,0,.53,0,.78a.81.81,0,0,0,0,.32.19.19,0,0,0,.11.08,1.78,1.78,0,0,0,.44,0"/><path class="cls-2" d="M10.62,9.71V9.52a1.11,1.11,0,0,0,.41,0,.12.12,0,0,0,.07-.05,1.12,1.12,0,0,0,0-.31c0-.25,0-.47,0-.66V6.09a.25.25,0,0,0,0-.12A.3.3,0,0,0,11,5.84a.23.23,0,0,0-.12-.06h-.32V5.58l.66,0,.45,0,.38.48.62.73.9,1.06.69.79c.11.13.21.23.28.3V6.83c0-.19,0-.41,0-.67a1.76,1.76,0,0,0,0-.3.18.18,0,0,0-.07-.05,1.26,1.26,0,0,0-.42,0V5.58l.73,0,.63,0v.19a1.3,1.3,0,0,0-.42,0,.09.09,0,0,0-.06.06,1,1,0,0,0,0,.3c0,.26,0,.48,0,.66v1.4c0,.28,0,.81,0,1.58h-.3l-.08-.08,0,0-.12-.12c-.17-.18-.29-.32-.37-.42l-.39-.48L11.42,6.19V8.44c0,.19,0,.42,0,.68a1.09,1.09,0,0,0,0,.3.13.13,0,0,0,.07.06,1.57,1.57,0,0,0,.42,0v.19a5.53,5.53,0,0,0-.59,0c-.24,0-.49,0-.76,0"/><path class="cls-2" d="M17.69,9.52v.19l-.85,0-.93,0V9.52a1.84,1.84,0,0,0,.44,0,.2.2,0,0,0,.1-.07.65.65,0,0,0,.05-.28s0-.32,0-.83V7c0-.26,0-.52,0-.77a.8.8,0,0,0-.05-.33.24.24,0,0,0-.11-.08,2.93,2.93,0,0,0-.43,0V5.58l.89,0,.89,0v.19a2.93,2.93,0,0,0-.43,0,.19.19,0,0,0-.11.08.66.66,0,0,0,0,.28s0,.31,0,.82V8.31c0,.27,0,.53,0,.78a.81.81,0,0,0,0,.32.19.19,0,0,0,.11.08,1.78,1.78,0,0,0,.44,0"/><path class="cls-2" d="M22,9.19l-.12.27a3.39,3.39,0,0,1-.69.25,3.51,3.51,0,0,1-.74.07,3.08,3.08,0,0,1-.88-.11,2.24,2.24,0,0,1-.7-.32,2,2,0,0,1-.49-.47,1.94,1.94,0,0,1-.3-.57,2.3,2.3,0,0,1-.1-.67,2,2,0,0,1,.68-1.52,2.62,2.62,0,0,1,1.84-.61,3.89,3.89,0,0,1,.51,0,4.64,4.64,0,0,1,.58.12l.41.1a1.86,1.86,0,0,0-.1.31,4.17,4.17,0,0,0-.06.57h-.19V6.3a.51.51,0,0,0-.33-.42,2,2,0,0,0-.88-.14,2.52,2.52,0,0,0-.73.1,1.37,1.37,0,0,0-.53.32,1.69,1.69,0,0,0-.38.54,2.41,2.41,0,0,0-.15.83,1.88,1.88,0,0,0,.56,1.41,2.1,2.1,0,0,0,1.49.53,2.76,2.76,0,0,0,.77-.11A2.1,2.1,0,0,0,22,9.13Z"/><path class="cls-2" d="M4,9.19l-.12.27a3.47,3.47,0,0,1-.7.25,3.38,3.38,0,0,1-.74.07,3.05,3.05,0,0,1-.87-.11,2.14,2.14,0,0,1-.7-.32,2.06,2.06,0,0,1-.5-.47A1.92,1.92,0,0,1,.1,8.31,2,2,0,0,1,0,7.64,2,2,0,0,1,.68,6.12a2.62,2.62,0,0,1,1.84-.61,4.12,4.12,0,0,1,.51,0,4.2,4.2,0,0,1,.57.12l.42.1a1.24,1.24,0,0,0-.1.31,4,4,0,0,0-.07.57H3.67V6.3a.51.51,0,0,0-.33-.42,2,2,0,0,0-.88-.14,2.52,2.52,0,0,0-.73.1,1.49,1.49,0,0,0-.54.32,1.67,1.67,0,0,0-.37.54,2,2,0,0,0-.15.83,1.88,1.88,0,0,0,.56,1.41,2.08,2.08,0,0,0,1.48.53,2.77,2.77,0,0,0,.78-.11A2.1,2.1,0,0,0,4,9.13Z"/><path class="cls-2" d="M1.74.29V.09l.61,0a5.12,5.12,0,0,0,.56,0c.18.39.34.73.49,1L4.55,3.36l1-2.06c.28-.56.47-1,.57-1.21l.54,0,.65,0v.2a1.67,1.67,0,0,0-.43,0,.15.15,0,0,0-.11.07.65.65,0,0,0,0,.28s0,.31,0,.81V2.81c0,.27,0,.52,0,.77a.73.73,0,0,0,0,.32A.19.19,0,0,0,6.92,4a1.67,1.67,0,0,0,.43,0V4.2c-.4,0-.69,0-.86,0l-.9,0V4A1.72,1.72,0,0,0,6,4a.19.19,0,0,0,.11-.07.65.65,0,0,0,.05-.28s0-.31,0-.82V.7l-1,2.08c-.16.33-.29.59-.38.79s-.17.37-.31.69H4.35a.78.78,0,0,0-.08-.18l-.2-.42L2.62.79v2c0,.26,0,.52,0,.77a.81.81,0,0,0,0,.32A.23.23,0,0,0,2.79,4a1.84,1.84,0,0,0,.44,0V4.2l-.73,0-.76,0V4a1.67,1.67,0,0,0,.43,0,.19.19,0,0,0,.11-.07.65.65,0,0,0,.05-.28s0-.31,0-.82V1.48c0-.26,0-.51,0-.76A.84.84,0,0,0,2.28.39.18.18,0,0,0,2.17.32a1.67,1.67,0,0,0-.43,0"/><path class="cls-2" d="M9.73.85l.76,1.74H9ZM8.19,4.18c.17,0,.43,0,.77,0V4L8.57,4a.2.2,0,0,1-.11-.06.11.11,0,0,1,0-.06.81.81,0,0,1,.09-.29l.33-.75h1.75l.38.89a.41.41,0,0,1,0,.16A.14.14,0,0,1,11,4a.19.19,0,0,1-.1,0,2.78,2.78,0,0,1-.41,0V4.2l1,0c.13,0,.35,0,.67,0V4a1,1,0,0,1-.31,0,.32.32,0,0,1-.13-.13c-.07-.12-.21-.42-.42-.89L10,.06H9.79l-.53,1.2L8.49,2.89q-.33.7-.39.81A.63.63,0,0,1,8,3.93L7.85,4h-.3V4.2c.23,0,.44,0,.64,0"/><path class="cls-2" d="M14.66.71a1.24,1.24,0,0,0,.18-.32s0-.06-.06-.08a1.78,1.78,0,0,0-.44,0V.09c.37,0,.59,0,.8,0l.71,0V.28a1.34,1.34,0,0,0-.39,0L15.3.38a1.75,1.75,0,0,0-.23.28l-.89,1.27a3.4,3.4,0,0,0-.29.5.51.51,0,0,0,0,.17v.22c0,.26,0,.52,0,.76a.84.84,0,0,0,.05.33A.18.18,0,0,0,14,4a1.67,1.67,0,0,0,.43,0V4.2c-.33,0-.62,0-.86,0s-.53,0-.91,0V4a1.67,1.67,0,0,0,.43,0,.13.13,0,0,0,.1-.07.48.48,0,0,0,0-.27s0-.32,0-.82V2.48l-.12-.23-.31-.5L12.09.66a1.39,1.39,0,0,0-.22-.28.46.46,0,0,0-.14-.07,1.39,1.39,0,0,0-.39,0V.09l.72,0c.21,0,.74,0,1.12,0V.28a2.22,2.22,0,0,0-.48,0s-.06,0-.06.08,0,.14.15.32l.9,1.46Z"/><path class="cls-2" d="M15.81,3a1.88,1.88,0,0,0,.43.71,1.86,1.86,0,0,0,.7.44,2.81,2.81,0,0,0,.89.14,2.44,2.44,0,0,0,1.73-.64A2.18,2.18,0,0,0,20.24,2a2,2,0,0,0-.07-.57A1.54,1.54,0,0,0,20,1a2,2,0,0,0-.41-.48,2,2,0,0,0-.67-.36A2.94,2.94,0,0,0,18,0a2.61,2.61,0,0,0-1,.16,2.28,2.28,0,0,0-.76.46,1.77,1.77,0,0,0-.47.7,2.32,2.32,0,0,0-.15.84,2.37,2.37,0,0,0,.15.82M16.48,1A1.34,1.34,0,0,1,17,.45a1.7,1.7,0,0,1,.85-.2,2.06,2.06,0,0,1,.62.09A1.87,1.87,0,0,1,19,.58a1.63,1.63,0,0,1,.3.34,1.56,1.56,0,0,1,.21.43,2.55,2.55,0,0,1,.13.84,2.42,2.42,0,0,1-.18,1,1.45,1.45,0,0,1-.53.64A1.58,1.58,0,0,1,18,4a1.87,1.87,0,0,1-.64-.11,1.37,1.37,0,0,1-.52-.35A1.72,1.72,0,0,1,16.5,3a2.59,2.59,0,0,1-.15-.49,3.53,3.53,0,0,1-.05-.56A2.1,2.1,0,0,1,16.48,1"/></g></g></svg>